<svg width="26" height="22" viewBox="0 0 26 22" fill="none" xmlns="http://www.w3.org/2000/svg">
<path d="M19.6189 22C18.5956 22 17.6444 21.5291 17.0718 20.7422C16.5219 19.9853 16.3979 19.0608 16.7337 18.2072L16.8487 17.9169H10.2535L10.3684 18.2072C10.7043 19.0629 10.5803 19.9875 10.0303 20.7422C9.45781 21.5291 8.50437 22 7.4833 22C6.27741 22 5.21126 21.3679 4.70186 20.353C4.21049 19.3704 4.34573 18.2781 5.0625 17.4289L5.20901 17.2568L5.02643 17.1235C4.1902 16.5108 3.63797 15.5862 3.55006 14.6552L2.28106 1.58034H0.861035C0.385439 1.58034 0 1.22557 0 0.791243C0 0.354769 0.385439 0 0.861035 0H3.0677C3.51625 0 3.88591 0.309617 3.92423 0.720289L4.25106 4.08307H25.1389C25.4139 4.08307 25.6641 4.19918 25.8287 4.40129C25.9842 4.59265 26.036 4.83346 25.9752 5.06353L23.7685 13.2318C23.6783 13.5694 23.3628 13.8102 22.9841 13.8296L5.29466 14.7928L5.4254 15.0766C5.77928 15.8421 6.58846 16.3366 7.48556 16.3366H19.6189C21.3116 16.3366 22.6866 17.6073 22.6866 19.1683C22.6866 20.7293 21.3116 22 19.6189 22ZM19.6189 17.9169C18.8773 17.9169 18.271 18.4781 18.271 19.1683C18.271 19.8585 18.8751 20.4197 19.6189 20.4197C20.3604 20.4197 20.9668 19.8585 20.9668 19.1683C20.9668 18.4781 20.3604 17.9169 19.6189 17.9169ZM7.47879 17.9169C6.73723 17.9169 6.1309 18.4781 6.1309 19.1683C6.1309 19.8585 6.73497 20.4197 7.47879 20.4197C8.22262 20.4197 8.82443 19.8585 8.82443 19.1683C8.82443 18.4781 8.22036 17.9169 7.47879 17.9169ZM5.13463 13.2168L22.247 12.2858L24.0367 5.66126H4.40208L5.13463 13.2168Z" fill="black"/>
</svg>
