<svg id="ab291551-19df-496f-884b-c9b4804b3c3a" data-name="Слой 1" xmlns="http://www.w3.org/2000/svg" viewBox="0 0 19 19"><path d="M16.25,9.5a.77.77,0,0,1-.08.34A7.52,7.52,0,0,1,9.5,14,7.52,7.52,0,0,1,2.83,9.84a.76.76,0,0,1,0-.68A7.52,7.52,0,0,1,9.5,5a7.52,7.52,0,0,1,6.67,4.16A.77.77,0,0,1,16.25,9.5Zm-.75,0a6.9,6.9,0,0,0-3-3,3.71,3.71,0,0,1,.79,2.28,3.75,3.75,0,0,1-7.5,0,3.71,3.71,0,0,1,.79-2.28,6.9,6.9,0,0,0-3,3,6.75,6.75,0,0,0,6,3.75A6.75,6.75,0,0,0,15.5,9.5Zm-9-.75a3,3,0,1,0,3-3A3,3,0,0,0,6.5,8.75Zm1.5,0s0,0,0-.07a1,1,0,0,0,.38.07A1.11,1.11,0,0,0,9.5,7.64a1,1,0,0,0-.07-.38H9.5A1.5,1.5,0,1,1,8,8.75Z" /></svg>