<svg id="e89a8dcc-484b-4594-8aca-57985420c24a" data-name="Слой 1" xmlns="http://www.w3.org/2000/svg" viewBox="0 0 19 19"><path d="M17,15a.28.28,0,0,1,0,.12l-.24.29a.17.17,0,0,1-.14.07.21.21,0,0,1-.12,0L2.07,4.13A.21.21,0,0,1,2,4a.28.28,0,0,1,0-.12l.24-.29a.17.17,0,0,1,.14-.07.21.21,0,0,1,.12,0L16.93,14.87A.21.21,0,0,1,17,15Zm-5.14-2.23.69.54A7.24,7.24,0,0,1,9.5,14h0A7.52,7.52,0,0,1,2.83,9.84a.76.76,0,0,1,0-.68A7.91,7.91,0,0,1,4.5,7l.6.48a6.83,6.83,0,0,0-1.6,2,6.75,6.75,0,0,0,6,3.75A6.48,6.48,0,0,0,11.86,12.79ZM6.52,8.58a1,1,0,0,0,0,.17,3,3,0,0,0,3.86,2.86l.69.55a3.74,3.74,0,0,1-5.3-3.4h0A3.36,3.36,0,0,1,5.83,8Zm1-2.07L6.45,5.67A7.24,7.24,0,0,1,9.5,5h0a7.52,7.52,0,0,1,6.67,4.16.76.76,0,0,1,0,.68A7.88,7.88,0,0,1,14.51,12l-.6-.47a6.9,6.9,0,0,0,1.59-2,6.9,6.9,0,0,0-3-3,3.71,3.71,0,0,1,.79,2.28,3.78,3.78,0,0,1-.51,1.86l-.6-.46A3,3,0,0,0,7.52,6.51ZM9.43,8a1.22,1.22,0,0,0,.07-.38.9.9,0,0,0-.07-.37h.09A1.48,1.48,0,0,1,11,8.73a1.7,1.7,0,0,1-.07.46Z" /></svg>