<svg width="153" height="53" viewBox="0 0 153 53" fill="none" xmlns="http://www.w3.org/2000/svg">
<path d="M1.62717 37.1227L5.90575 9.57218C6.05328 8.63323 7.30735 8.41085 7.74996 9.25096L12.3482 17.8991L1.62717 37.1227ZM32.0444 43.8188L27.9625 18.4427C27.8396 17.652 26.856 17.3308 26.2904 17.8991L0.569824 43.8188L14.8071 51.8492C15.6924 52.3434 16.7989 52.3434 17.6841 51.8492L32.0444 43.8188ZM20.4873 21.6796L17.1923 15.3788C16.8235 14.6622 15.8153 14.6622 15.4465 15.3788L0.963256 41.3232L20.4873 21.6796Z" fill="white"/>
<path d="M47.7814 42.8302H44.8799V20.1968H58.0353V22.9889H47.7814V30.4263H57.0517V33.1443H47.806V42.8302H47.7814Z" fill="white"/>
<path d="M63.0269 23.4584C62.6334 23.8537 62.1416 24.0514 61.5761 24.0514C61.0105 24.0514 60.5187 23.8537 60.1253 23.4584C59.7319 23.063 59.5352 22.5689 59.5352 22.0006C59.5352 21.4322 59.7319 20.9381 60.1253 20.5427C60.5187 20.1474 61.0105 19.9497 61.5761 19.9497C62.1416 19.9497 62.6334 20.1474 63.0269 20.5427C63.4203 20.9381 63.617 21.4322 63.617 22.0006C63.617 22.5689 63.4203 23.0383 63.0269 23.4584ZM63.0269 42.8302H60.1253V27.3377H63.0269V42.8302Z" fill="white"/>
<path d="M69.0759 42.83H66.1743V27.3374H68.9529V29.8577H69.0759C69.3709 29.0176 69.9611 28.3258 70.8955 27.7822C71.8053 27.2386 72.6905 26.9668 73.5512 26.9668C74.4118 26.9668 75.1249 27.0903 75.715 27.3374L74.6085 30.0554C74.2397 29.9072 73.7233 29.833 73.0594 29.833C72.002 29.833 71.0922 30.2531 70.2808 31.0932C69.4693 31.9333 69.0759 33.0205 69.0759 34.3548V42.83Z" fill="white"/>
<path d="M82.6987 43.3497C80.3627 43.3497 78.4693 42.559 77.0185 41.0023C75.5678 39.4456 74.8301 37.4689 74.8301 35.0969C74.8301 32.8483 75.5432 30.8963 76.9448 29.2655C78.371 27.6347 80.166 26.8193 82.3791 26.8193C84.6659 26.8193 86.4855 27.5606 87.8625 29.0679C89.2395 30.5751 89.928 32.5765 89.928 35.0721L89.9034 35.6157H77.7316C77.8054 37.1724 78.3464 38.4079 79.2808 39.3221C80.2398 40.2363 81.3463 40.6811 82.6249 40.6811C84.6905 40.6811 86.1167 39.7916 86.8543 38.0125L89.4362 39.0997C88.9444 40.3104 88.1084 41.2988 86.9527 42.1142C85.797 42.9296 84.3708 43.3497 82.6987 43.3497ZM86.8543 33.219C86.7806 32.3294 86.3871 31.4893 85.6494 30.6986C84.9118 29.908 83.8052 29.4879 82.3299 29.4879C81.2479 29.4879 80.3381 29.8338 79.5513 30.501C78.7644 31.1681 78.2234 32.0824 77.9284 33.219H86.8543Z" fill="white"/>
<path d="M100.108 43.3491C98.9278 43.3491 97.8704 43.102 96.936 42.5831C96.0016 42.0889 95.3131 41.4465 94.8459 40.6805H94.723V42.8302H91.9443V20.1968H94.8459V27.3377L94.723 29.4874H94.8459C95.3131 28.7214 96.0016 28.1037 96.936 27.5848C97.8704 27.0906 98.9278 26.8188 100.108 26.8188C102.1 26.8188 103.821 27.6095 105.272 29.1908C106.723 30.7722 107.436 32.7242 107.436 35.0716C107.436 37.4189 106.723 39.3709 105.272 40.9523C103.821 42.5584 102.1 43.3491 100.108 43.3491ZM99.6163 40.6805C100.969 40.6805 102.124 40.1616 103.083 39.1486C104.042 38.1355 104.534 36.7765 104.534 35.0963C104.534 33.4161 104.042 32.0571 103.083 31.044C102.124 30.031 100.969 29.5121 99.6163 29.5121C98.2639 29.5121 97.0836 30.0062 96.1491 31.0193C95.2147 32.0324 94.723 33.3914 94.723 35.0963C94.723 36.8012 95.1902 38.1602 96.1491 39.1733C97.1081 40.1863 98.2639 40.6805 99.6163 40.6805Z" fill="white"/>
<path d="M114.64 43.3497C112.993 43.3497 111.64 42.8802 110.534 41.9165C109.427 40.9776 108.886 39.7174 108.886 38.1608C108.886 36.4806 109.526 35.1463 110.829 34.1826C112.132 33.219 113.73 32.7495 115.648 32.7495C117.345 32.7495 118.747 33.0707 119.829 33.6884V33.2437C119.829 32.1071 119.435 31.1928 118.673 30.501C117.886 29.8091 116.952 29.4632 115.82 29.4632C114.984 29.4632 114.222 29.6609 113.534 30.0562C112.845 30.4516 112.378 30.9952 112.132 31.7117L109.476 30.5751C109.845 29.6362 110.534 28.7961 111.591 28.0054C112.648 27.2147 114.025 26.8193 115.747 26.8193C117.714 26.8193 119.361 27.3876 120.665 28.549C121.968 29.7103 122.607 31.3411 122.607 33.4413V42.8308H119.829V40.6811H119.706C118.55 42.4601 116.853 43.3497 114.64 43.3497ZM115.107 40.6811C116.312 40.6811 117.394 40.2363 118.353 39.3468C119.337 38.4573 119.829 37.3948 119.829 36.1593C119.017 35.4922 117.788 35.1463 116.14 35.1463C114.739 35.1463 113.681 35.4428 112.968 36.0605C112.255 36.6782 111.886 37.3948 111.886 38.2102C111.886 38.9762 112.206 39.5692 112.87 40.0139C113.534 40.4587 114.271 40.6811 115.107 40.6811Z" fill="white"/>
<path d="M130.648 43.3493C128.927 43.3493 127.501 42.9293 126.394 42.0892C125.263 41.2491 124.451 40.1866 123.935 38.9264L126.517 37.8392C127.328 39.7912 128.73 40.7549 130.697 40.7549C131.607 40.7549 132.345 40.5572 132.91 40.1619C133.476 39.7665 133.771 39.2229 133.771 38.5805C133.771 37.5674 133.058 36.8756 131.656 36.5297L128.533 35.7637C127.55 35.5166 126.615 35.0224 125.73 34.3306C124.845 33.614 124.402 32.6751 124.402 31.4643C124.402 30.1053 125.017 28.9934 126.222 28.1286C127.427 27.2638 128.853 26.8438 130.525 26.8438C131.877 26.8438 133.107 27.165 134.164 27.7827C135.246 28.4004 136.009 29.2899 136.451 30.4513L133.943 31.489C133.377 30.13 132.197 29.4382 130.427 29.4382C129.566 29.4382 128.853 29.6112 128.263 29.9818C127.673 30.3524 127.378 30.8219 127.378 31.4396C127.378 32.3291 128.066 32.9222 129.419 33.2434L132.468 33.9599C133.918 34.3059 134.976 34.8742 135.689 35.6896C136.377 36.505 136.722 37.4439 136.722 38.4817C136.722 39.8654 136.156 41.0267 135.025 41.9656C133.894 42.9046 132.443 43.3493 130.648 43.3493Z" fill="white"/>
<path d="M145.77 43.3497C143.434 43.3497 141.541 42.559 140.09 41.0023C138.64 39.4456 137.902 37.4689 137.902 35.0969C137.902 32.8483 138.615 30.8963 140.017 29.2655C141.443 27.6347 143.238 26.8193 145.451 26.8193C147.738 26.8193 149.557 27.5606 150.934 29.0679C152.311 30.5751 153 32.5765 153 35.0721L152.975 35.6157H140.803C140.877 37.1724 141.418 38.4079 142.353 39.3221C143.312 40.2363 144.418 40.6811 145.697 40.6811C147.762 40.6811 149.188 39.7916 149.926 38.0125L152.508 39.0997C152.016 40.3104 151.18 41.2988 150.024 42.1142C148.869 42.9296 147.443 43.3497 145.77 43.3497ZM149.926 33.219C149.852 32.3294 149.459 31.4893 148.721 30.6986C147.984 29.908 146.877 29.4879 145.402 29.4879C144.32 29.4879 143.41 29.8338 142.623 30.501C141.836 31.1681 141.295 32.0824 141 33.219H149.926Z" fill="white"/>
<path d="M44.6836 11.4999V0.875H48.495C49.331 0.875 50.0441 1.1468 50.6342 1.6904C51.249 2.23399 51.5441 2.92585 51.5441 3.76595C51.5441 4.26013 51.4211 4.70489 51.1506 5.10024C50.8801 5.49558 50.5359 5.76738 50.1179 5.96505V6.01447C50.6342 6.18743 51.0769 6.50865 51.3965 6.9287C51.7408 7.37346 51.8883 7.86764 51.8883 8.43595C51.8883 9.30076 51.5686 10.0173 50.9293 10.6103C50.29 11.1786 49.5523 11.4752 48.6917 11.4752H44.6836V11.4999ZM46.036 5.44616H48.495C49.0113 5.44616 49.4294 5.2732 49.7244 4.92727C50.0441 4.58135 50.1916 4.21071 50.1916 3.81537C50.1916 3.42003 50.0441 3.04939 49.749 2.70346C49.4539 2.35754 49.0605 2.20929 48.5687 2.20929H46.036V5.44616ZM46.036 10.215H48.7654C49.2818 10.215 49.6998 10.042 50.0441 9.6714C50.3638 9.30076 50.5359 8.90542 50.5359 8.46066C50.5359 8.0159 50.3638 7.62055 50.0441 7.27463C49.6998 6.90399 49.2818 6.73103 48.7409 6.73103H46.0606V10.215H46.036Z" fill="white"/>
<path d="M59.8798 11.4993H58.5765V10.4862H58.5273C58.3306 10.8322 58.011 11.1287 57.5929 11.3758C57.1749 11.6228 56.7323 11.7464 56.2405 11.7464C55.3307 11.7464 54.6422 11.4746 54.175 10.9063C53.7078 10.3627 53.4619 9.62142 53.4619 8.68248V4.23486H54.8143V8.4601C54.8143 9.81909 55.4045 10.4862 56.6094 10.4862C57.1749 10.4862 57.6175 10.2639 57.9864 9.79438C58.3306 9.34962 58.5273 8.80602 58.5273 8.21301V4.23486H59.8798V11.4993Z" fill="white"/>
<path d="M63.1748 2.43138C62.9781 2.62905 62.7568 2.70318 62.4863 2.70318C62.2158 2.70318 61.9945 2.60434 61.7978 2.43138C61.6011 2.23371 61.5273 2.01133 61.5273 1.73953C61.5273 1.46773 61.6257 1.24535 61.7978 1.04768C61.9945 0.850005 62.2158 0.775879 62.4863 0.775879C62.7568 0.775879 62.9781 0.874714 63.1748 1.04768C63.3716 1.24535 63.4453 1.46773 63.4453 1.73953C63.4453 2.01133 63.347 2.23371 63.1748 2.43138ZM63.1748 11.4996H61.8224V4.23514H63.1748V11.4996Z" fill="white"/>
<path d="M66.4452 11.4999H65.0928V0.875H66.4452V11.4999Z" fill="white"/>
<path d="M71.2893 11.6227C70.527 11.6227 69.9615 11.4251 69.568 11.005C69.1746 10.6097 68.9779 10.0166 68.9779 9.27538V5.4949H67.6992V4.25945H68.9779V2.03564H70.3303V4.25945H72.1007V5.4949H70.3303V9.20125C70.3303 9.99194 70.65 10.3873 71.3139 10.3873C71.5598 10.3873 71.7565 10.3379 71.9286 10.2637L72.3958 11.4251C72.0762 11.5733 71.7073 11.6227 71.2893 11.6227Z" fill="white"/>
<path d="M85.4037 11.4993H84.0267L82.2317 5.91507L80.4367 11.4993H79.0596L76.7236 4.23486H78.1498L79.7481 9.72025H79.7727L81.5678 4.23486H82.9694L84.7644 9.72025H84.789L86.3873 4.23486H87.7643L85.4037 11.4993Z" fill="white"/>
<path d="M90.2725 2.43138C90.0758 2.62905 89.8545 2.70318 89.584 2.70318C89.3135 2.70318 89.0922 2.60434 88.8955 2.43138C88.6988 2.23371 88.625 2.01133 88.625 1.73953C88.625 1.46773 88.7234 1.24535 88.8955 1.04768C89.0922 0.850005 89.3135 0.775879 89.584 0.775879C89.8545 0.775879 90.0758 0.874714 90.2725 1.04768C90.4692 1.24535 90.543 1.46773 90.543 1.73953C90.543 2.01133 90.4447 2.23371 90.2725 2.43138ZM90.2725 11.4996H88.9201V4.23514H90.2725V11.4996Z" fill="white"/>
<path d="M95.1659 11.6227C94.4037 11.6227 93.8381 11.4251 93.4201 11.005C93.0266 10.6097 92.8299 10.0166 92.8299 9.27538V5.4949H91.5513V4.25945H92.8299V2.03564H94.1823V4.25945H95.9528V5.4949H94.1823V9.20125C94.1823 9.99194 94.502 10.3873 95.1659 10.3873C95.4118 10.3873 95.6085 10.3379 95.7807 10.2637L96.2479 11.4251C95.9528 11.5733 95.6085 11.6227 95.1659 11.6227Z" fill="white"/>
<path d="M98.7803 0.89971V4.26013L98.7311 5.2732H98.7803C98.977 4.92727 99.2967 4.63077 99.7147 4.38368C100.133 4.13659 100.6 4.01304 101.067 4.01304C101.952 4.01304 102.641 4.28484 103.108 4.85315C103.575 5.39674 103.821 6.13801 103.821 7.07695V11.5246H102.469V7.27462C102.469 5.94034 101.879 5.24849 100.674 5.24849C100.108 5.24849 99.6655 5.47087 99.2967 5.91563C98.9524 6.36039 98.7557 6.87928 98.7557 7.4723V11.4999H97.4033V0.875H98.7803V0.89971Z" fill="white"/>
</svg>
