<svg width="29" height="30" viewBox="0 0 29 30" fill="none" xmlns="http://www.w3.org/2000/svg">
<path d="M28.4107 15.8072C28.4279 14.8122 28.3249 13.8173 28.1075 12.851H14.5107V18.2202H22.4937C22.1904 20.1243 21.1203 21.8168 19.5351 22.9146L19.5065 23.0919L23.8041 26.4198L24.1017 26.4484C26.8313 23.9267 28.4107 20.2158 28.4107 15.8072Z" fill="#4285F4"/>
<path d="M14.515 30C18.4416 30 21.7416 28.7072 24.1505 26.4779L19.5627 22.9213C18.0737 23.9211 16.3087 24.4267 14.5207 24.375C10.7493 24.352 7.41482 21.9159 6.242 18.3306L6.06953 18.3478L1.57946 21.8182L1.52197 21.9791C3.9826 26.9031 9.01308 30.0057 14.515 30Z" fill="#34A853"/>
<path d="M6.18987 18.3442C5.87754 17.4215 5.71286 16.4529 5.71286 15.4728C5.71854 14.4985 5.87754 13.53 6.17852 12.6015L6.17284 12.4124L1.68092 8.89343L1.53327 8.9622C-0.511091 13.06 -0.511091 17.8857 1.53327 21.9835L6.18987 18.3442Z" fill="#FBBC05"/>
<path d="M14.4673 6.60111C16.5447 6.56662 18.5478 7.34261 20.0643 8.76813L24.1505 4.76173C21.5294 2.29007 18.0556 0.939275 14.4616 0.979511C8.9847 0.979511 3.97712 4.07772 1.52197 8.99805L6.20335 12.6481C7.38228 9.06128 10.7073 6.62411 14.4673 6.60111Z" fill="#EB4335"/>
</svg>
