<svg id="a8a37a2b-3875-4eb3-a497-6c649a88d5c2" data-name="Слой 1" xmlns="http://www.w3.org/2000/svg" viewBox="0 0 19 19"><path d="M14.75,5.19v.37a.18.18,0,0,1-.19.19H14v8.63a1.12,1.12,0,0,1-1.12,1.12H6.13A1.12,1.12,0,0,1,5,14.38V5.75H4.44a.18.18,0,0,1-.19-.19V5.19A.18.18,0,0,1,4.44,5H6.88l.78-1a1.14,1.14,0,0,1,.9-.45h1.88a1.14,1.14,0,0,1,.9.45l.79,1h2.43A.18.18,0,0,1,14.75,5.19Zm-1.5.56H5.75v8.63a.38.38,0,0,0,.38.37h6.75a.38.38,0,0,0,.37-.37Zm-6,7.69V7.06a.18.18,0,0,1,.19-.18h.37A.18.18,0,0,1,8,7.06v6.38a.19.19,0,0,1-.19.19H7.44A.19.19,0,0,1,7.25,13.44ZM7.81,5h3.38l-.45-.6a.38.38,0,0,0-.3-.15H8.56a.38.38,0,0,0-.3.15Zm1.32,8.44V7.06a.18.18,0,0,1,.18-.18h.38a.19.19,0,0,1,.19.18v6.38a.2.2,0,0,1-.19.19H9.31A.19.19,0,0,1,9.13,13.44Zm1.87,0V7.06a.18.18,0,0,1,.19-.18h.37a.18.18,0,0,1,.19.18v6.38a.19.19,0,0,1-.19.19h-.37A.19.19,0,0,1,11,13.44Z"/></svg>